<svg width="85" height="97" viewBox="0 0 85 97" fill="none" xmlns="http://www.w3.org/2000/svg">
<path d="M63.8182 32C63.1818 29.7879 62.2879 27.8333 61.1364 26.1364C59.9849 24.4091 58.5758 22.9545 56.9091 21.7727C55.2727 20.5606 53.3939 19.6364 51.2727 19C49.1818 18.3636 46.8636 18.0455 44.3182 18.0455C39.5606 18.0455 35.3788 19.2273 31.7727 21.5909C28.197 23.9545 25.4091 27.3939 23.4091 31.9091C21.4091 36.3939 20.4091 41.8788 20.4091 48.3636C20.4091 54.8485 21.3939 60.3636 23.3636 64.9091C25.3333 69.4545 28.1212 72.9242 31.7273 75.3182C35.3333 77.6818 39.5909 78.8636 44.5 78.8636C48.9545 78.8636 52.7576 78.0758 55.9091 76.5C59.0909 74.8939 61.5152 72.6364 63.1818 69.7273C64.8788 66.8182 65.7273 63.3788 65.7273 59.4091L69.7273 60H45.7273V45.1818H84.6818V56.9091C84.6818 65.0909 82.9545 72.1212 79.5 78C76.0455 83.8485 71.2879 88.3636 65.2273 91.5455C59.1667 94.697 52.2273 96.2727 44.4091 96.2727C35.6818 96.2727 28.0152 94.3485 21.4091 90.5C14.803 86.6212 9.65152 81.1212 5.95455 74C2.28788 66.8485 0.454545 58.3636 0.454545 48.5455C0.454545 41 1.54545 34.2727 3.72727 28.3636C5.93939 22.4242 9.0303 17.3939 13 13.2727C16.9697 9.15151 21.5909 6.01515 26.8636 3.86363C32.1364 1.71212 37.8485 0.63636 44 0.63636C49.2727 0.63636 54.1818 1.40909 58.7273 2.95454C63.2727 4.4697 67.303 6.62121 70.8182 9.40909C74.3636 12.197 77.2576 15.5151 79.5 19.3636C81.7424 23.1818 83.1818 27.3939 83.8182 32H63.8182Z" fill="#186891"/>
</svg>
